# xmcd CD database file
# Copyright (C) 1993-1998 Ti Kan
#
# Track frame offsets:
# 150
# 27832
# 53768
# 69324
# 87140
# 110022
# 128704
# 142740
# 169707
# 198869
#
# Disc length: 2902 seconds
# Revision: 0
# Processed by: cddbd v1.4b41PL1 Copyright (c) Steve Scherf et al.
# Submitted via: CDSpectrumPro v3.3.331
#
DISCID=7a0b540a
DTITLE=Toto Guillaume - Toto Guillaume Golden Collection Vol 1
DYEAR=1900
DGENRE=
TTITLE0=Dibena
TTITLE1=Ndom'a Moumi
TTITLE2=Bola Mba Malea
TTITLE3=Mont Koupe
TTITLE4=Francoise
TTITLE5=Ndand'a Mbia
TTITLE6=Bato Ba Nunga
TTITLE7=O Bia Te Ndolo
TTITLE8=Emene Marie
TTITLE9=Osi Banga Mba
EXTD=Cameroonian Music
EXTT0=
EXTT1=
EXTT2=
EXTT3=
EXTT4=
EXTT5=
EXTT6=
EXTT7=
EXTT8=
EXTT9=
PLAYORDER=
